<svg xmlns="http://www.w3.org/2000/svg" width="60" height="40" viewBox="0 0 60 40">
  <rect width="60" height="13.33" y="0" fill="#fcd116"/>
  <rect width="60" height="13.34" y="13.33" fill="#00399c"/>
  <rect width="60" height="13.33" y="26.67" fill="#ce1126"/>
  <g fill="#fff" transform="translate(30 20) scale(0.72)">
    <path d="M-10.39 1.84 -9.1 3.01l-.45 1.5-1.44-.66-1.43.66-.46-1.5 1.3-1.17-1.68-.02-.45-1.5 1.43-.66L-10.39-1l.46 1.5 1.68.02z"/>
    <path d="M-5.2 8.37l1.3 1.18-.46 1.5-1.43-.66-1.44.66-.45-1.5 1.3-1.18-1.68-.01-.45-1.5 1.43-.66 1.44.66.46 1.5z"/>
    <path d="M2.6 8.37l1.3 1.18-.45 1.5-1.44-.66-1.44.66-.45-1.5 1.3-1.18-1.68-.01-.45-1.5 1.44-.66 1.44.66.45 1.5z"/>
    <path d="M7.79 1.84 9.08 3.01l-.45 1.5-1.43-.66-1.44.66-.45-1.5 1.3-1.17-1.68-.02-.45-1.5 1.44-.66L7.79-1l.45 1.5 1.68.02z"/>
    <path d="M-1.3 11.31l1.3 1.18-.45 1.5-1.44-.66-1.44.66-.45-1.5 1.3-1.18-1.68-.01-.46-1.5 1.44-.66 1.44.66.44 1.5z"/>
    <path d="M4.6 11.31l1.3 1.18-.45 1.5-1.44-.66-1.44.66-.45-1.5 1.3-1.18-1.68-.01-.45-1.5 1.44-.66 1.44.66.45 1.5z"/>
    <path d="M-7.2 8.37l1.3 1.18-.45 1.5-1.44-.66-1.44.66-.45-1.5 1.3-1.18-1.68-.01-.45-1.5 1.44-.66 1.44.66.45 1.5z"/>
    <path d="M0.7 8.37l1.3 1.18-.45 1.5-1.44-.66-1.44.66-.45-1.5 1.3-1.18-1.68-.01-.45-1.5 1.44-.66 1.44.66.45 1.5z"/>
  </g>
</svg>
