<svg width="24" height="24" viewBox="0 0 24 24" fill="none" xmlns="http://www.w3.org/2000/svg">
<path d="M5.5 6.5C6.5 6 7.625 5.75 8.5 5.75C9.75 5.75 11 6.25 12 7C13.25 6.25 14.5 5.75 15.75 5.75C16.75 5.75 18 6 18.75 6.5" stroke="#2C88DA" stroke-width="1.4" stroke-linecap="round"/>
<path d="M5.5 13C6.5 12.5 7.625 12.25 8.5 12.25C9.75 12.25 11 12.75 12 13.5C13.25 12.75 14.5 12.25 15.75 12.25C16.75 12.25 18 12.5 18.75 13" stroke="#30C1AB" stroke-width="1.4" stroke-linecap="round"/>
<path d="M12 7V19" stroke="#2C88DA" stroke-width="1.4" stroke-linecap="round"/>
<circle cx="12" cy="5" r="2" stroke="#30C1AB" stroke-width="1.2"/>
<circle cx="8.5" cy="19" r="1.75" stroke="#2C88DA" stroke-width="1.2"/>
<circle cx="15.5" cy="19" r="1.75" stroke="#30C1AB" stroke-width="1.2"/>
</svg>
